solid OpenSCAD_Model
  facet normal -1 0 0
    outer loop
      vertex -59 -27 0
      vertex -59 -27 73
      vertex -59 27 0
    endloop
  endfacet
  facet normal -1 0 0
    outer loop
      vertex -59 -10.8164 69.05
      vertex -59 -27 73
      vertex -59 27 73
    endloop
  endfacet
  facet normal -1 0 0
    outer loop
      vertex -59 -13.1836 64.95
      vertex -59 -27 73
      vertex -59 -14.3671 67
    endloop
  endfacet
  facet normal -1 0 0
    outer loop
      vertex -59 27 0
      vertex -59 -27 73
      vertex -59 -13.1836 64.95
    endloop
  endfacet
  facet normal -1 0 0
    outer loop
      vertex -59 -10.8164 69.05
      vertex -59 27 73
      vertex -59 -9.63286 67
    endloop
  endfacet
  facet normal -1 0 0
    outer loop
      vertex -59 11.8164 69.05
      vertex -59 -10.8164 64.95
      vertex -59 27 73
    endloop
  endfacet
  facet normal -1 0 0
    outer loop
      vertex -59 -10.8164 64.95
      vertex -59 -9.63286 67
      vertex -59 27 73
    endloop
  endfacet
  facet normal -1 0 0
    outer loop
      vertex -59 -13.1836 69.05
      vertex -59 -27 73
      vertex -59 -10.8164 69.05
    endloop
  endfacet
  facet normal -1 0 0
    outer loop
      vertex -59 10.6329 67
      vertex -59 -10.8164 64.95
      vertex -59 11.8164 69.05
    endloop
  endfacet
  facet normal -1 0 0
    outer loop
      vertex -59 -14.3671 67
      vertex -59 -27 73
      vertex -59 -13.1836 69.05
    endloop
  endfacet
  facet normal -1 0 0
    outer loop
      vertex -59 27 0
      vertex -59 -10.8164 64.95
      vertex -59 10.6329 67
    endloop
  endfacet
  facet normal -1 0 0
    outer loop
      vertex -59 27 0
      vertex -59 10.6329 67
      vertex -59 11.8164 64.95
    endloop
  endfacet
  facet normal -1 0 0
    outer loop
      vertex -59 27 0
      vertex -59 11.8164 64.95
      vertex -59 14.1836 64.95
    endloop
  endfacet
  facet normal -1 0 0
    outer loop
      vertex -59 27 0
      vertex -59 14.1836 64.95
      vertex -59 27 73
    endloop
  endfacet
  facet normal -1 0 0
    outer loop
      vertex -59 14.1836 69.05
      vertex -59 27 73
      vertex -59 15.3671 67
    endloop
  endfacet
  facet normal -1 0 0
    outer loop
      vertex -59 15.3671 67
      vertex -59 27 73
      vertex -59 14.1836 64.95
    endloop
  endfacet
  facet normal -1 0 0
    outer loop
      vertex -59 14.1836 69.05
      vertex -59 11.8164 69.05
      vertex -59 27 73
    endloop
  endfacet
  facet normal -1 0 0
    outer loop
      vertex -59 -10.8164 64.95
      vertex -59 27 0
      vertex -59 -13.1836 64.95
    endloop
  endfacet
  facet normal 0 -1 0
    outer loop
      vertex -51 -27 56
      vertex -59 -27 0
      vertex 59 -27 0
    endloop
  endfacet
  facet normal 0 -1 0
    outer loop
      vertex -51 -27 56
      vertex -51 -27 73
      vertex -59 -27 73
    endloop
  endfacet
  facet normal 0 -1 0
    outer loop
      vertex 59 -27 73
      vertex 51 -27 73
      vertex 59 -27 0
    endloop
  endfacet
  facet normal 0 -1 0
    outer loop
      vertex 51 -27 73
      vertex 51 -27 56
      vertex 59 -27 0
    endloop
  endfacet
  facet normal 0 -1 0
    outer loop
      vertex -59 -27 73
      vertex -59 -27 0
      vertex -51 -27 56
    endloop
  endfacet
  facet normal 0 -1 0
    outer loop
      vertex 51 -27 56
      vertex -51 -27 56
      vertex 59 -27 0
    endloop
  endfacet
  facet normal 0 0 -1
    outer loop
      vertex -46 -20 0
      vertex -57 1.5 0
      vertex -51 1.5 0
    endloop
  endfacet
  facet normal 0 0 -1
    outer loop
      vertex -42 20 0
      vertex -59 27 0
      vertex 59 27 0
    endloop
  endfacet
  facet normal 0 0 -1
    outer loop
      vertex -59 -27 0
      vertex -59 27 0
      vertex -57 13.5 0
    endloop
  endfacet
  facet normal 0 0 -1
    outer loop
      vertex -46 -20 0
      vertex -51 13.5 0
      vertex -46 20 0
    endloop
  endfacet
  facet normal 0 0 -1
    outer loop
      vertex -59 -27 0
      vertex -57 13.5 0
      vertex -57 1.5 0
    endloop
  endfacet
  facet normal 0 0 -1
    outer loop
      vertex -57 13.5 0
      vertex -59 27 0
      vertex -51 13.5 0
    endloop
  endfacet
  facet normal 0 0 -1
    outer loop
      vertex -51 13.5 0
      vertex -59 27 0
      vertex -46 20 0
    endloop
  endfacet
  facet normal 0 0 -1
    outer loop
      vertex -59 -27 0
      vertex -57 1.5 0
      vertex -46 -20 0
    endloop
  endfacet
  facet normal 0 0 -1
    outer loop
      vertex -59 -27 0
      vertex -46 -20 0
      vertex 59 -27 0
    endloop
  endfacet
  facet normal 0 0 -1
    outer loop
      vertex -46 -20 0
      vertex -42 -20 0
      vertex 59 -27 0
    endloop
  endfacet
  facet normal 0 0 -1
    outer loop
      vertex -46 -20 0
      vertex -51 1.5 0
      vertex -51 13.5 0
    endloop
  endfacet
  facet normal 0 0 -1
    outer loop
      vertex -36 20 0
      vertex -42 20 0
      vertex 59 27 0
    endloop
  endfacet
  facet normal 0 0 -1
    outer loop
      vertex -32 20 0
      vertex -36 20 0
      vertex 59 27 0
    endloop
  endfacet
  facet normal 0 0 -1
    outer loop
      vertex -32 20 0
      vertex -26 -20 0
      vertex -32 -20 0
    endloop
  endfacet
  facet normal 0 0 -1
    outer loop
      vertex -42 -20 0
      vertex -36 -20 0
      vertex 59 -27 0
    endloop
  endfacet
  facet normal 0 0 -1
    outer loop
      vertex -36 -20 0
      vertex -32 -20 0
      vertex 59 -27 0
    endloop
  endfacet
  facet normal 0 0 -1
    outer loop
      vertex -26 -20 0
      vertex -32 20 0
      vertex -26 20 0
    endloop
  endfacet
  facet normal 0 0 -1
    outer loop
      vertex -26 20 0
      vertex -32 20 0
      vertex 59 27 0
    endloop
  endfacet
  facet normal 0 0 -1
    outer loop
      vertex -22 20 0
      vertex -26 20 0
      vertex 59 27 0
    endloop
  endfacet
  facet normal 0 0 -1
    outer loop
      vertex -32 -20 0
      vertex -26 -20 0
      vertex 59 -27 0
    endloop
  endfacet
  facet normal 0 0 -1
    outer loop
      vertex 4.5 -7.73959 0
      vertex 10.5104 -13.75 0
      vertex -2 -20 0
    endloop
  endfacet
  facet normal 0 0 -1
    outer loop
      vertex -26 -20 0
      vertex -22 -20 0
      vertex 59 -27 0
    endloop
  endfacet
  facet normal 0 0 -1
    outer loop
      vertex -16 -20 0
      vertex -22 20 0
      vertex -16 20 0
    endloop
  endfacet
  facet normal 0 0 -1
    outer loop
      vertex -16 20 0
      vertex -22 20 0
      vertex 59 27 0
    endloop
  endfacet
  facet normal 0 0 -1
    outer loop
      vertex -12 20 0
      vertex -6 -20 0
      vertex -12 -20 0
    endloop
  endfacet
  facet normal 0 0 -1
    outer loop
      vertex -12 20 0
      vertex -16 20 0
      vertex 59 27 0
    endloop
  endfacet
  facet normal 0 0 -1
    outer loop
      vertex -2 20 0
      vertex 4.5 7.73959 0
      vertex 4.5 -7.73959 0
    endloop
  endfacet
  facet normal 0 0 -1
    outer loop
      vertex -22 -20 0
      vertex -16 -20 0
      vertex 59 -27 0
    endloop
  endfacet
  facet normal 0 0 -1
    outer loop
      vertex -2 20 0
      vertex 4.5 -7.73959 0
      vertex -2 -20 0
    endloop
  endfacet
  facet normal 0 0 -1
    outer loop
      vertex -16 -20 0
      vertex -12 -20 0
      vertex 59 -27 0
    endloop
  endfacet
  facet normal 0 0 -1
    outer loop
      vertex -6 -20 0
      vertex -12 20 0
      vertex -6 20 0
    endloop
  endfacet
  facet normal 0 0 -1
    outer loop
      vertex -6 20 0
      vertex -12 20 0
      vertex 59 27 0
    endloop
  endfacet
  facet normal 0 0 -1
    outer loop
      vertex -2 20 0
      vertex -6 20 0
      vertex 59 27 0
    endloop
  endfacet
  facet normal 0 0 -1
    outer loop
      vertex -12 -20 0
      vertex -6 -20 0
      vertex 59 -27 0
    endloop
  endfacet
  facet normal 0 0 -1
    outer loop
      vertex -6 -20 0
      vertex -2 -20 0
      vertex 59 -27 0
    endloop
  endfacet
  facet normal 0 0 -1
    outer loop
      vertex 52 -13.75 0
      vertex 59 -27 0
      vertex 30.5 -18.2679 0
    endloop
  endfacet
  facet normal 0 0 -1
    outer loop
      vertex 28.5 21.7321 0
      vertex -2 20 0
      vertex 59 27 0
    endloop
  endfacet
  facet normal 0 0 -1
    outer loop
      vertex 52 -13.75 0
      vertex 30.5 -18.2679 0
      vertex 28.5 -18.2679 0
    endloop
  endfacet
  facet normal 0 0 -1
    outer loop
      vertex -46 20 0
      vertex -59 27 0
      vertex -42 20 0
    endloop
  endfacet
  facet normal 0 0 -1
    outer loop
      vertex -36 -20 0
      vertex -42 20 0
      vertex -36 20 0
    endloop
  endfacet
  facet normal 0 0 -1
    outer loop
      vertex 4.5 7.73959 0
      vertex -2 20 0
      vertex 10.5104 13.75 0
    endloop
  endfacet
  facet normal 0 0 -1
    outer loop
      vertex 59 -27 0
      vertex 52 -13.75 0
      vertex 59 27 0
    endloop
  endfacet
  facet normal 0 0 -1
    outer loop
      vertex 10.5104 13.75 0
      vertex -2 20 0
      vertex 52 13.75 0
    endloop
  endfacet
  facet normal 0 0 -1
    outer loop
      vertex 52 -13.75 0
      vertex 52 13.75 0
      vertex 59 27 0
    endloop
  endfacet
  facet normal 0 0 -1
    outer loop
      vertex -22 20 0
      vertex -16 -20 0
      vertex -22 -20 0
    endloop
  endfacet
  facet normal 0 0 -1
    outer loop
      vertex -2 -20 0
      vertex 27.5 -20 0
      vertex 28.5 -21.7321 0
    endloop
  endfacet
  facet normal 0 0 -1
    outer loop
      vertex -2 -20 0
      vertex 28.5 -21.7321 0
      vertex 59 -27 0
    endloop
  endfacet
  facet normal 0 0 -1
    outer loop
      vertex 28.5 -21.7321 0
      vertex 30.5 -21.7321 0
      vertex 59 -27 0
    endloop
  endfacet
  facet normal 0 0 -1
    outer loop
      vertex -42 20 0
      vertex -36 -20 0
      vertex -42 -20 0
    endloop
  endfacet
  facet normal 0 0 -1
    outer loop
      vertex 27.5 20 0
      vertex -2 20 0
      vertex 28.5 21.7321 0
    endloop
  endfacet
  facet normal 0 0 -1
    outer loop
      vertex 28.5 18.2679 0
      vertex -2 20 0
      vertex 27.5 20 0
    endloop
  endfacet
  facet normal 0 0 -1
    outer loop
      vertex 52 13.75 0
      vertex -2 20 0
      vertex 28.5 18.2679 0
    endloop
  endfacet
  facet normal 0 0 -1
    outer loop
      vertex 52 13.75 0
      vertex 28.5 18.2679 0
      vertex 30.5 18.2679 0
    endloop
  endfacet
  facet normal 0 0 -1
    outer loop
      vertex 30.5 21.7321 0
      vertex 59 27 0
      vertex 31.5 20 0
    endloop
  endfacet
  facet normal 0 0 -1
    outer loop
      vertex 52 13.75 0
      vertex 31.5 20 0
      vertex 59 27 0
    endloop
  endfacet
  facet normal 0 0 -1
    outer loop
      vertex 31.5 20 0
      vertex 52 13.75 0
      vertex 30.5 18.2679 0
    endloop
  endfacet
  facet normal 0 0 -1
    outer loop
      vertex 30.5 21.7321 0
      vertex 28.5 21.7321 0
      vertex 59 27 0
    endloop
  endfacet
  facet normal 0 0 -1
    outer loop
      vertex 52 -13.75 0
      vertex 28.5 -18.2679 0
      vertex 10.5104 -13.75 0
    endloop
  endfacet
  facet normal 0 0 -1
    outer loop
      vertex 30.5 -18.2679 0
      vertex 59 -27 0
      vertex 31.5 -20 0
    endloop
  endfacet
  facet normal 0 0 -1
    outer loop
      vertex 31.5 -20 0
      vertex 59 -27 0
      vertex 30.5 -21.7321 0
    endloop
  endfacet
  facet normal 0 0 -1
    outer loop
      vertex 10.5104 -13.75 0
      vertex 27.5 -20 0
      vertex -2 -20 0
    endloop
  endfacet
  facet normal 0 0 -1
    outer loop
      vertex 27.5 -20 0
      vertex 10.5104 -13.75 0
      vertex 28.5 -18.2679 0
    endloop
  endfacet
  facet normal 0 1 0
    outer loop
      vertex 51 27 45
      vertex 59 27 0
      vertex -51 27 45
    endloop
  endfacet
  facet normal 0 1 0
    outer loop
      vertex -59 27 0
      vertex -59 27 73
      vertex -51 27 45
    endloop
  endfacet
  facet normal 0 1 0
    outer loop
      vertex -59 27 0
      vertex -51 27 45
      vertex 59 27 0
    endloop
  endfacet
  facet normal 0 1 0
    outer loop
      vertex 59 27 0
      vertex 51 27 45
      vertex 51 27 73
    endloop
  endfacet
  facet normal 0 1 0
    outer loop
      vertex 59 27 0
      vertex 51 27 73
      vertex 59 27 73
    endloop
  endfacet
  facet normal 0 1 0
    outer loop
      vertex -51 27 45
      vertex -59 27 73
      vertex -51 27 73
    endloop
  endfacet
  facet normal 0 0 1
    outer loop
      vertex -57 -25 73
      vertex -59 -27 73
      vertex -51 -27 73
    endloop
  endfacet
  facet normal 0 0 1
    outer loop
      vertex -57 -25 73
      vertex -57 25 73
      vertex -59 27 73
    endloop
  endfacet
  facet normal 0 0 1
    outer loop
      vertex -59 27 73
      vertex -59 -27 73
      vertex -57 -25 73
    endloop
  endfacet
  facet normal 0 0 1
    outer loop
      vertex -51 25 73
      vertex -59 27 73
      vertex -57 25 73
    endloop
  endfacet
  facet normal 0 0 1
    outer loop
      vertex -51 27 73
      vertex -59 27 73
      vertex -51 25 73
    endloop
  endfacet
  facet normal 0 0 1
    outer loop
      vertex -51 -25 73
      vertex -57 -25 73
      vertex -51 -27 73
    endloop
  endfacet
  facet normal 1.11022e-16 0.866025 -0.5
    outer loop
      vertex -57 -13.1836 69.05
      vertex -57 -14.3671 67
      vertex -59 -13.1836 69.05
    endloop
  endfacet
  facet normal 1.11022e-16 0.866025 -0.5
    outer loop
      vertex -59 -13.1836 69.05
      vertex -57 -14.3671 67
      vertex -59 -14.3671 67
    endloop
  endfacet
  facet normal -1.11022e-16 0.866025 0.5
    outer loop
      vertex -57 -13.1836 64.95
      vertex -59 -13.1836 64.95
      vertex -57 -14.3671 67
    endloop
  endfacet
  facet normal -1.11022e-16 0.866025 0.5
    outer loop
      vertex -57 -14.3671 67
      vertex -59 -13.1836 64.95
      vertex -59 -14.3671 67
    endloop
  endfacet
  facet normal 2.22045e-16 -2.22045e-16 -1
    outer loop
      vertex -57 -10.8164 69.05
      vertex -57 -13.1836 69.05
      vertex -59 -10.8164 69.05
    endloop
  endfacet
  facet normal 2.22045e-16 -2.22045e-16 -1
    outer loop
      vertex -59 -10.8164 69.05
      vertex -57 -13.1836 69.05
      vertex -59 -13.1836 69.05
    endloop
  endfacet
  facet normal 1.11022e-16 -0.866025 -0.5
    outer loop
      vertex -59 -9.63286 67
      vertex -57 -9.63286 67
      vertex -57 -10.8164 69.05
    endloop
  endfacet
  facet normal 1.11022e-16 -0.866025 -0.5
    outer loop
      vertex -59 -10.8164 69.05
      vertex -59 -9.63286 67
      vertex -57 -10.8164 69.05
    endloop
  endfacet
  facet normal -1.11022e-16 -0.866025 0.5
    outer loop
      vertex -57 -10.8164 64.95
      vertex -57 -9.63286 67
      vertex -59 -9.63286 67
    endloop
  endfacet
  facet normal -1.11022e-16 -0.866025 0.5
    outer loop
      vertex -59 -10.8164 64.95
      vertex -57 -10.8164 64.95
      vertex -59 -9.63286 67
    endloop
  endfacet
  facet normal -2.22045e-16 2.22045e-16 1
    outer loop
      vertex -57 -13.1836 64.95
      vertex -57 -10.8164 64.95
      vertex -59 -10.8164 64.95
    endloop
  endfacet
  facet normal -2.22045e-16 2.22045e-16 1
    outer loop
      vertex -59 -13.1836 64.95
      vertex -57 -13.1836 64.95
      vertex -59 -10.8164 64.95
    endloop
  endfacet
  facet normal 1.11022e-16 0.866025 -0.5
    outer loop
      vertex -57 11.8164 69.05
      vertex -57 10.6329 67
      vertex -59 11.8164 69.05
    endloop
  endfacet
  facet normal 1.11022e-16 0.866025 -0.5
    outer loop
      vertex -59 11.8164 69.05
      vertex -57 10.6329 67
      vertex -59 10.6329 67
    endloop
  endfacet
  facet normal -1.11022e-16 0.866025 0.5
    outer loop
      vertex -57 11.8164 64.95
      vertex -59 11.8164 64.95
      vertex -57 10.6329 67
    endloop
  endfacet
  facet normal -1.11022e-16 0.866025 0.5
    outer loop
      vertex -57 10.6329 67
      vertex -59 11.8164 64.95
      vertex -59 10.6329 67
    endloop
  endfacet
  facet normal 2.22045e-16 -2.22045e-16 -1
    outer loop
      vertex -57 14.1836 69.05
      vertex -57 11.8164 69.05
      vertex -59 14.1836 69.05
    endloop
  endfacet
  facet normal 2.22045e-16 -2.22045e-16 -1
    outer loop
      vertex -59 14.1836 69.05
      vertex -57 11.8164 69.05
      vertex -59 11.8164 69.05
    endloop
  endfacet
  facet normal 1.11022e-16 -0.866025 -0.5
    outer loop
      vertex -59 15.3671 67
      vertex -57 15.3671 67
      vertex -57 14.1836 69.05
    endloop
  endfacet
  facet normal 1.11022e-16 -0.866025 -0.5
    outer loop
      vertex -59 14.1836 69.05
      vertex -59 15.3671 67
      vertex -57 14.1836 69.05
    endloop
  endfacet
  facet normal -1.11022e-16 -0.866025 0.5
    outer loop
      vertex -57 14.1836 64.95
      vertex -57 15.3671 67
      vertex -59 15.3671 67
    endloop
  endfacet
  facet normal -1.11022e-16 -0.866025 0.5
    outer loop
      vertex -59 14.1836 64.95
      vertex -57 14.1836 64.95
      vertex -59 15.3671 67
    endloop
  endfacet
  facet normal -2.22045e-16 2.22045e-16 1
    outer loop
      vertex -57 11.8164 64.95
      vertex -57 14.1836 64.95
      vertex -59 14.1836 64.95
    endloop
  endfacet
  facet normal -2.22045e-16 2.22045e-16 1
    outer loop
      vertex -59 11.8164 64.95
      vertex -57 11.8164 64.95
      vertex -59 14.1836 64.95
    endloop
  endfacet
  facet normal 1 0 0
    outer loop
      vertex -51 -25 56
      vertex -51 -25 73
      vertex -51 -27 73
    endloop
  endfacet
  facet normal 1 0 0
    outer loop
      vertex -51 -27 56
      vertex -51 -25 56
      vertex -51 -27 73
    endloop
  endfacet
  facet normal 0 0 1
    outer loop
      vertex 51 -27 56
      vertex 51 -25 56
      vertex -51 -25 56
    endloop
  endfacet
  facet normal 0 0 1
    outer loop
      vertex -51 -27 56
      vertex 51 -27 56
      vertex -51 -25 56
    endloop
  endfacet
  facet normal -1 0 0
    outer loop
      vertex 51 -25 73
      vertex 51 -25 56
      vertex 51 -27 73
    endloop
  endfacet
  facet normal -1 0 0
    outer loop
      vertex 51 -27 73
      vertex 51 -25 56
      vertex 51 -27 56
    endloop
  endfacet
  facet normal 0 0 1
    outer loop
      vertex 51 -25 73
      vertex 51 -27 73
      vertex 59 -27 73
    endloop
  endfacet
  facet normal 0 0 1
    outer loop
      vertex 57 -25 73
      vertex 51 -25 73
      vertex 59 -27 73
    endloop
  endfacet
  facet normal 0 0 1
    outer loop
      vertex 51 27 73
      vertex 51 25 73
      vertex 59 27 73
    endloop
  endfacet
  facet normal 0 0 1
    outer loop
      vertex 51 25 73
      vertex 57 25 73
      vertex 59 27 73
    endloop
  endfacet
  facet normal 0 0 1
    outer loop
      vertex 59 27 73
      vertex 57 -25 73
      vertex 59 -27 73
    endloop
  endfacet
  facet normal 0 0 1
    outer loop
      vertex 57 25 73
      vertex 57 -25 73
      vertex 59 27 73
    endloop
  endfacet
  facet normal 1 0 0
    outer loop
      vertex 59 -27 73
      vertex 59 -27 0
      vertex 59 27 0
    endloop
  endfacet
  facet normal 1 0 0
    outer loop
      vertex 59 -13.1836 64.95
      vertex 59 -27 73
      vertex 59 27 0
    endloop
  endfacet
  facet normal 1 0 0
    outer loop
      vertex 59 -10.8164 64.95
      vertex 59 -13.1836 64.95
      vertex 59 27 0
    endloop
  endfacet
  facet normal 1 0 0
    outer loop
      vertex 59 -14.3671 67
      vertex 59 -27 73
      vertex 59 -13.1836 64.95
    endloop
  endfacet
  facet normal 1 0 0
    outer loop
      vertex 59 -13.1836 69.05
      vertex 59 -27 73
      vertex 59 -14.3671 67
    endloop
  endfacet
  facet normal 1 0 0
    outer loop
      vertex 59 27 73
      vertex 59 -27 73
      vertex 59 -13.1836 69.05
    endloop
  endfacet
  facet normal 1 0 0
    outer loop
      vertex 59 -9.63286 67
      vertex 59 -10.8164 64.95
      vertex 59 27 73
    endloop
  endfacet
  facet normal 1 0 0
    outer loop
      vertex 59 27 73
      vertex 59 -13.1836 69.05
      vertex 59 -10.8164 69.05
    endloop
  endfacet
  facet normal 1 0 0
    outer loop
      vertex 59 14.1836 69.05
      vertex 59 15.3671 67
      vertex 59 27 73
    endloop
  endfacet
  facet normal 1 0 0
    outer loop
      vertex 59 11.8164 64.95
      vertex 59 -10.8164 64.95
      vertex 59 27 0
    endloop
  endfacet
  facet normal 1 0 0
    outer loop
      vertex 59 14.1836 64.95
      vertex 59 11.8164 64.95
      vertex 59 27 0
    endloop
  endfacet
  facet normal 1 0 0
    outer loop
      vertex 59 10.6329 67
      vertex 59 -10.8164 64.95
      vertex 59 11.8164 64.95
    endloop
  endfacet
  facet normal 1 0 0
    outer loop
      vertex 59 11.8164 69.05
      vertex 59 -10.8164 64.95
      vertex 59 10.6329 67
    endloop
  endfacet
  facet normal 1 0 0
    outer loop
      vertex 59 27 73
      vertex 59 -10.8164 64.95
      vertex 59 11.8164 69.05
    endloop
  endfacet
  facet normal 1 0 0
    outer loop
      vertex 59 15.3671 67
      vertex 59 14.1836 64.95
      vertex 59 27 73
    endloop
  endfacet
  facet normal 1 0 0
    outer loop
      vertex 59 27 73
      vertex 59 11.8164 69.05
      vertex 59 14.1836 69.05
    endloop
  endfacet
  facet normal 1 0 0
    outer loop
      vertex 59 27 73
      vertex 59 14.1836 64.95
      vertex 59 27 0
    endloop
  endfacet
  facet normal 1 0 0
    outer loop
      vertex 59 -10.8164 69.05
      vertex 59 -9.63286 67
      vertex 59 27 73
    endloop
  endfacet
  facet normal 1 0 0
    outer loop
      vertex -57 1.5 4
      vertex -57 1.5 0
      vertex -57 13.5 0
    endloop
  endfacet
  facet normal 1 0 0
    outer loop
      vertex -57 25 73
      vertex -57 1.5 4
      vertex -57 13.5 4
    endloop
  endfacet
  facet normal 1 0 0
    outer loop
      vertex -57 13.5 4
      vertex -57 1.5 4
      vertex -57 13.5 0
    endloop
  endfacet
  facet normal 1 0 0
    outer loop
      vertex -57 25 73
      vertex -57 13.5 4
      vertex -57 25 4
    endloop
  endfacet
  facet normal 1 0 0
    outer loop
      vertex -57 15.3671 67
      vertex -57 1.5 4
      vertex -57 25 73
    endloop
  endfacet
  facet normal 1 0 0
    outer loop
      vertex -57 -10.8164 69.05
      vertex -57 -9.63286 67
      vertex -57 25 73
    endloop
  endfacet
  facet normal 1 0 0
    outer loop
      vertex -57 14.1836 69.05
      vertex -57 15.3671 67
      vertex -57 25 73
    endloop
  endfacet
  facet normal 1 0 0
    outer loop
      vertex -57 -25 73
      vertex -57 1.5 4
      vertex -57 -14.3671 67
    endloop
  endfacet
  facet normal 1 0 0
    outer loop
      vertex -57 -25 73
      vertex -57 -13.1836 69.05
      vertex -57 25 73
    endloop
  endfacet
  facet normal 1 0 0
    outer loop
      vertex -57 -25 73
      vertex -57 -14.3671 67
      vertex -57 -13.1836 69.05
    endloop
  endfacet
  facet normal 1 0 0
    outer loop
      vertex -57 -13.1836 69.05
      vertex -57 -10.8164 69.05
      vertex -57 25 73
    endloop
  endfacet
  facet normal 1 0 0
    outer loop
      vertex -57 -10.8164 64.95
      vertex -57 1.5 4
      vertex -57 -9.63286 67
    endloop
  endfacet
  facet normal 1 0 0
    outer loop
      vertex -57 -13.1836 64.95
      vertex -57 1.5 4
      vertex -57 -10.8164 64.95
    endloop
  endfacet
  facet normal 1 0 0
    outer loop
      vertex -57 -14.3671 67
      vertex -57 1.5 4
      vertex -57 -13.1836 64.95
    endloop
  endfacet
  facet normal 1 0 0
    outer loop
      vertex -57 -9.63286 67
      vertex -57 1.5 4
      vertex -57 10.6329 67
    endloop
  endfacet
  facet normal 1 0 0
    outer loop
      vertex -57 -9.63286 67
      vertex -57 11.8164 69.05
      vertex -57 25 73
    endloop
  endfacet
  facet normal 1 0 0
    outer loop
      vertex -57 -9.63286 67
      vertex -57 10.6329 67
      vertex -57 11.8164 69.05
    endloop
  endfacet
  facet normal 1 0 0
    outer loop
      vertex -57 11.8164 69.05
      vertex -57 14.1836 69.05
      vertex -57 25 73
    endloop
  endfacet
  facet normal 1 0 0
    outer loop
      vertex -57 14.1836 64.95
      vertex -57 1.5 4
      vertex -57 15.3671 67
    endloop
  endfacet
  facet normal 1 0 0
    outer loop
      vertex -57 11.8164 64.95
      vertex -57 1.5 4
      vertex -57 14.1836 64.95
    endloop
  endfacet
  facet normal 1 0 0
    outer loop
      vertex -57 10.6329 67
      vertex -57 1.5 4
      vertex -57 11.8164 64.95
    endloop
  endfacet
  facet normal 1 0 0
    outer loop
      vertex -57 -25 4
      vertex -57 1.5 4
      vertex -57 -25 73
    endloop
  endfacet
  facet normal 0 -1 0
    outer loop
      vertex -51 13.5 0
      vertex -51 13.5 4
      vertex -57 13.5 4
    endloop
  endfacet
  facet normal 0 -1 0
    outer loop
      vertex -57 13.5 0
      vertex -51 13.5 0
      vertex -57 13.5 4
    endloop
  endfacet
  facet normal -1 0 0
    outer loop
      vertex -51 13.5 4
      vertex -51 13.5 0
      vertex -51 1.5 4
    endloop
  endfacet
  facet normal -1 0 0
    outer loop
      vertex -51 1.5 4
      vertex -51 13.5 0
      vertex -51 1.5 0
    endloop
  endfacet
  facet normal 0 1 0
    outer loop
      vertex -51 1.5 4
      vertex -51 1.5 0
      vertex -57 1.5 4
    endloop
  endfacet
  facet normal 0 1 0
    outer loop
      vertex -57 1.5 4
      vertex -51 1.5 0
      vertex -57 1.5 0
    endloop
  endfacet
  facet normal 1 0 0
    outer loop
      vertex -46 20 0
      vertex -46 20 4
      vertex -46 -20 4
    endloop
  endfacet
  facet normal 1 0 0
    outer loop
      vertex -46 -20 0
      vertex -46 20 0
      vertex -46 -20 4
    endloop
  endfacet
  facet normal 0 -1 0
    outer loop
      vertex -42 20 0
      vertex -42 20 4
      vertex -46 20 4
    endloop
  endfacet
  facet normal 0 -1 0
    outer loop
      vertex -46 20 0
      vertex -42 20 0
      vertex -46 20 4
    endloop
  endfacet
  facet normal -1 0 0
    outer loop
      vertex -42 20 4
      vertex -42 20 0
      vertex -42 -20 4
    endloop
  endfacet
  facet normal -1 0 0
    outer loop
      vertex -42 -20 4
      vertex -42 20 0
      vertex -42 -20 0
    endloop
  endfacet
  facet normal 0 1 0
    outer loop
      vertex -42 -20 4
      vertex -42 -20 0
      vertex -46 -20 4
    endloop
  endfacet
  facet normal 0 1 0
    outer loop
      vertex -46 -20 4
      vertex -42 -20 0
      vertex -46 -20 0
    endloop
  endfacet
  facet normal 1 0 0
    outer loop
      vertex -36 20 0
      vertex -36 20 4
      vertex -36 -20 4
    endloop
  endfacet
  facet normal 1 0 0
    outer loop
      vertex -36 -20 0
      vertex -36 20 0
      vertex -36 -20 4
    endloop
  endfacet
  facet normal 0 -1 0
    outer loop
      vertex -32 20 0
      vertex -32 20 4
      vertex -36 20 4
    endloop
  endfacet
  facet normal 0 -1 0
    outer loop
      vertex -36 20 0
      vertex -32 20 0
      vertex -36 20 4
    endloop
  endfacet
  facet normal -1 0 0
    outer loop
      vertex -32 20 4
      vertex -32 20 0
      vertex -32 -20 4
    endloop
  endfacet
  facet normal -1 0 0
    outer loop
      vertex -32 -20 4
      vertex -32 20 0
      vertex -32 -20 0
    endloop
  endfacet
  facet normal 0 1 0
    outer loop
      vertex -32 -20 4
      vertex -32 -20 0
      vertex -36 -20 4
    endloop
  endfacet
  facet normal 0 1 0
    outer loop
      vertex -36 -20 4
      vertex -32 -20 0
      vertex -36 -20 0
    endloop
  endfacet
  facet normal 1 0 0
    outer loop
      vertex -26 20 0
      vertex -26 20 4
      vertex -26 -20 4
    endloop
  endfacet
  facet normal 1 0 0
    outer loop
      vertex -26 -20 0
      vertex -26 20 0
      vertex -26 -20 4
    endloop
  endfacet
  facet normal 0 -1 0
    outer loop
      vertex -22 20 0
      vertex -22 20 4
      vertex -26 20 4
    endloop
  endfacet
  facet normal 0 -1 0
    outer loop
      vertex -26 20 0
      vertex -22 20 0
      vertex -26 20 4
    endloop
  endfacet
  facet normal -1 0 0
    outer loop
      vertex -22 20 4
      vertex -22 20 0
      vertex -22 -20 4
    endloop
  endfacet
  facet normal -1 0 0
    outer loop
      vertex -22 -20 4
      vertex -22 20 0
      vertex -22 -20 0
    endloop
  endfacet
  facet normal 0 1 0
    outer loop
      vertex -22 -20 4
      vertex -22 -20 0
      vertex -26 -20 4
    endloop
  endfacet
  facet normal 0 1 0
    outer loop
      vertex -26 -20 4
      vertex -22 -20 0
      vertex -26 -20 0
    endloop
  endfacet
  facet normal 1 0 0
    outer loop
      vertex -16 20 0
      vertex -16 20 4
      vertex -16 -20 4
    endloop
  endfacet
  facet normal 1 0 0
    outer loop
      vertex -16 -20 0
      vertex -16 20 0
      vertex -16 -20 4
    endloop
  endfacet
  facet normal 0 -1 0
    outer loop
      vertex -12 20 0
      vertex -12 20 4
      vertex -16 20 4
    endloop
  endfacet
  facet normal 0 -1 0
    outer loop
      vertex -16 20 0
      vertex -12 20 0
      vertex -16 20 4
    endloop
  endfacet
  facet normal -1 0 0
    outer loop
      vertex -12 20 4
      vertex -12 20 0
      vertex -12 -20 4
    endloop
  endfacet
  facet normal -1 0 0
    outer loop
      vertex -12 -20 4
      vertex -12 20 0
      vertex -12 -20 0
    endloop
  endfacet
  facet normal 0 1 0
    outer loop
      vertex -12 -20 4
      vertex -12 -20 0
      vertex -16 -20 4
    endloop
  endfacet
  facet normal 0 1 0
    outer loop
      vertex -16 -20 4
      vertex -12 -20 0
      vertex -16 -20 0
    endloop
  endfacet
  facet normal 1 0 0
    outer loop
      vertex -6 20 0
      vertex -6 20 4
      vertex -6 -20 4
    endloop
  endfacet
  facet normal 1 0 0
    outer loop
      vertex -6 -20 0
      vertex -6 20 0
      vertex -6 -20 4
    endloop
  endfacet
  facet normal 0 -1 0
    outer loop
      vertex -2 20 0
      vertex -2 20 4
      vertex -6 20 4
    endloop
  endfacet
  facet normal 0 -1 0
    outer loop
      vertex -6 20 0
      vertex -2 20 0
      vertex -6 20 4
    endloop
  endfacet
  facet normal -1 0 0
    outer loop
      vertex -2 20 4
      vertex -2 20 0
      vertex -2 -20 4
    endloop
  endfacet
  facet normal -1 0 0
    outer loop
      vertex -2 -20 4
      vertex -2 20 0
      vertex -2 -20 0
    endloop
  endfacet
  facet normal 0 1 0
    outer loop
      vertex -2 -20 4
      vertex -2 -20 0
      vertex -6 -20 4
    endloop
  endfacet
  facet normal 0 1 0
    outer loop
      vertex -6 -20 4
      vertex -2 -20 0
      vertex -6 -20 0
    endloop
  endfacet
  facet normal 1 -1.22465e-16 0
    outer loop
      vertex 4.5 7.73959 0
      vertex 4.5 7.73959 4
      vertex 4.5 -7.73959 4
    endloop
  endfacet
  facet normal 1 -1.22465e-16 0
    outer loop
      vertex 4.5 -7.73959 0
      vertex 4.5 7.73959 0
      vertex 4.5 -7.73959 4
    endloop
  endfacet
  facet normal 0.707107 -0.707107 0
    outer loop
      vertex 4.5 7.73959 4
      vertex 4.5 7.73959 0
      vertex 10.5104 13.75 0
    endloop
  endfacet
  facet normal 0.707107 -0.707107 0
    outer loop
      vertex 10.5104 13.75 4
      vertex 4.5 7.73959 4
      vertex 10.5104 13.75 0
    endloop
  endfacet
  facet normal -1.22465e-16 -1 0
    outer loop
      vertex 52 13.75 0
      vertex 52 13.75 4
      vertex 10.5104 13.75 4
    endloop
  endfacet
  facet normal -1.22465e-16 -1 0
    outer loop
      vertex 10.5104 13.75 0
      vertex 52 13.75 0
      vertex 10.5104 13.75 4
    endloop
  endfacet
  facet normal -1 1.22465e-16 0
    outer loop
      vertex 52 13.75 4
      vertex 52 13.75 0
      vertex 52 -13.75 4
    endloop
  endfacet
  facet normal -1 1.22465e-16 0
    outer loop
      vertex 52 -13.75 4
      vertex 52 13.75 0
      vertex 52 -13.75 0
    endloop
  endfacet
  facet normal 1.22465e-16 1 0
    outer loop
      vertex 52 -13.75 4
      vertex 52 -13.75 0
      vertex 10.5104 -13.75 4
    endloop
  endfacet
  facet normal 1.22465e-16 1 0
    outer loop
      vertex 10.5104 -13.75 4
      vertex 52 -13.75 0
      vertex 10.5104 -13.75 0
    endloop
  endfacet
  facet normal 0.707107 0.707107 0
    outer loop
      vertex 10.5104 -13.75 0
      vertex 4.5 -7.73959 0
      vertex 4.5 -7.73959 4
    endloop
  endfacet
  facet normal 0.707107 0.707107 0
    outer loop
      vertex 10.5104 -13.75 4
      vertex 10.5104 -13.75 0
      vertex 4.5 -7.73959 4
    endloop
  endfacet
  facet normal 0.866025 0.5 0
    outer loop
      vertex 27.5 -20 4
      vertex 28.5 -21.7321 4
      vertex 28.5 -21.7321 0
    endloop
  endfacet
  facet normal 0.866025 0.5 0
    outer loop
      vertex 27.5 -20 0
      vertex 27.5 -20 4
      vertex 28.5 -21.7321 0
    endloop
  endfacet
  facet normal 0.866025 -0.5 0
    outer loop
      vertex 28.5 -18.2679 0
      vertex 28.5 -18.2679 4
      vertex 27.5 -20 4
    endloop
  endfacet
  facet normal 0.866025 -0.5 0
    outer loop
      vertex 27.5 -20 0
      vertex 28.5 -18.2679 0
      vertex 27.5 -20 4
    endloop
  endfacet
  facet normal -1.22465e-16 -1 0
    outer loop
      vertex 30.5 -18.2679 0
      vertex 30.5 -18.2679 4
      vertex 28.5 -18.2679 4
    endloop
  endfacet
  facet normal -1.22465e-16 -1 0
    outer loop
      vertex 28.5 -18.2679 0
      vertex 30.5 -18.2679 0
      vertex 28.5 -18.2679 4
    endloop
  endfacet
  facet normal -0.866025 -0.5 0
    outer loop
      vertex 31.5 -20 4
      vertex 30.5 -18.2679 4
      vertex 31.5 -20 0
    endloop
  endfacet
  facet normal -0.866025 -0.5 0
    outer loop
      vertex 31.5 -20 0
      vertex 30.5 -18.2679 4
      vertex 30.5 -18.2679 0
    endloop
  endfacet
  facet normal -0.866025 0.5 0
    outer loop
      vertex 31.5 -20 4
      vertex 31.5 -20 0
      vertex 30.5 -21.7321 4
    endloop
  endfacet
  facet normal -0.866025 0.5 0
    outer loop
      vertex 30.5 -21.7321 4
      vertex 31.5 -20 0
      vertex 30.5 -21.7321 0
    endloop
  endfacet
  facet normal 1.22465e-16 1 0
    outer loop
      vertex 30.5 -21.7321 4
      vertex 30.5 -21.7321 0
      vertex 28.5 -21.7321 4
    endloop
  endfacet
  facet normal 1.22465e-16 1 0
    outer loop
      vertex 28.5 -21.7321 4
      vertex 30.5 -21.7321 0
      vertex 28.5 -21.7321 0
    endloop
  endfacet
  facet normal 0.866025 0.5 0
    outer loop
      vertex 27.5 20 4
      vertex 28.5 18.2679 4
      vertex 28.5 18.2679 0
    endloop
  endfacet
  facet normal 0.866025 0.5 0
    outer loop
      vertex 27.5 20 0
      vertex 27.5 20 4
      vertex 28.5 18.2679 0
    endloop
  endfacet
  facet normal 0.866025 -0.5 0
    outer loop
      vertex 28.5 21.7321 0
      vertex 28.5 21.7321 4
      vertex 27.5 20 4
    endloop
  endfacet
  facet normal 0.866025 -0.5 0
    outer loop
      vertex 27.5 20 0
      vertex 28.5 21.7321 0
      vertex 27.5 20 4
    endloop
  endfacet
  facet normal -1.22465e-16 -1 0
    outer loop
      vertex 30.5 21.7321 0
      vertex 30.5 21.7321 4
      vertex 28.5 21.7321 4
    endloop
  endfacet
  facet normal -1.22465e-16 -1 0
    outer loop
      vertex 28.5 21.7321 0
      vertex 30.5 21.7321 0
      vertex 28.5 21.7321 4
    endloop
  endfacet
  facet normal -0.866025 -0.5 0
    outer loop
      vertex 31.5 20 4
      vertex 30.5 21.7321 4
      vertex 31.5 20 0
    endloop
  endfacet
  facet normal -0.866025 -0.5 0
    outer loop
      vertex 31.5 20 0
      vertex 30.5 21.7321 4
      vertex 30.5 21.7321 0
    endloop
  endfacet
  facet normal -0.866025 0.5 0
    outer loop
      vertex 31.5 20 4
      vertex 31.5 20 0
      vertex 30.5 18.2679 4
    endloop
  endfacet
  facet normal -0.866025 0.5 0
    outer loop
      vertex 30.5 18.2679 4
      vertex 31.5 20 0
      vertex 30.5 18.2679 0
    endloop
  endfacet
  facet normal 1.22465e-16 1 0
    outer loop
      vertex 30.5 18.2679 4
      vertex 30.5 18.2679 0
      vertex 28.5 18.2679 4
    endloop
  endfacet
  facet normal 1.22465e-16 1 0
    outer loop
      vertex 28.5 18.2679 4
      vertex 30.5 18.2679 0
      vertex 28.5 18.2679 0
    endloop
  endfacet
  facet normal -1 0 0
    outer loop
      vertex 51 27 73
      vertex 51 27 45
      vertex 51 25 73
    endloop
  endfacet
  facet normal -1 0 0
    outer loop
      vertex 51 25 73
      vertex 51 27 45
      vertex 51 25 45
    endloop
  endfacet
  facet normal 0 0 1
    outer loop
      vertex 51 25 45
      vertex 51 27 45
      vertex -51 27 45
    endloop
  endfacet
  facet normal 0 0 1
    outer loop
      vertex -51 25 45
      vertex 51 25 45
      vertex -51 27 45
    endloop
  endfacet
  facet normal 1 0 0
    outer loop
      vertex -51 27 45
      vertex -51 27 73
      vertex -51 25 73
    endloop
  endfacet
  facet normal 1 0 0
    outer loop
      vertex -51 25 45
      vertex -51 27 45
      vertex -51 25 73
    endloop
  endfacet
  facet normal 0 -1 0
    outer loop
      vertex 57 25 4
      vertex 57 25 73
      vertex 51 25 73
    endloop
  endfacet
  facet normal 0 -1 0
    outer loop
      vertex -51 25 45
      vertex 57 25 4
      vertex 51 25 45
    endloop
  endfacet
  facet normal 0 -1 0
    outer loop
      vertex 51 25 45
      vertex 57 25 4
      vertex 51 25 73
    endloop
  endfacet
  facet normal 0 -1 0
    outer loop
      vertex -57 25 4
      vertex 57 25 4
      vertex -51 25 45
    endloop
  endfacet
  facet normal 0 -1 0
    outer loop
      vertex -57 25 73
      vertex -51 25 45
      vertex -51 25 73
    endloop
  endfacet
  facet normal 0 -1 0
    outer loop
      vertex -57 25 4
      vertex -51 25 45
      vertex -57 25 73
    endloop
  endfacet
  facet normal 0 1 0
    outer loop
      vertex -51 -25 73
      vertex -51 -25 56
      vertex -57 -25 73
    endloop
  endfacet
  facet normal 0 1 0
    outer loop
      vertex -57 -25 4
      vertex -51 -25 56
      vertex 57 -25 4
    endloop
  endfacet
  facet normal 0 1 0
    outer loop
      vertex 57 -25 73
      vertex 51 -25 56
      vertex 51 -25 73
    endloop
  endfacet
  facet normal 0 1 0
    outer loop
      vertex 57 -25 4
      vertex 51 -25 56
      vertex 57 -25 73
    endloop
  endfacet
  facet normal 0 1 0
    outer loop
      vertex -51 -25 56
      vertex 51 -25 56
      vertex 57 -25 4
    endloop
  endfacet
  facet normal 0 1 0
    outer loop
      vertex -57 -25 73
      vertex -51 -25 56
      vertex -57 -25 4
    endloop
  endfacet
  facet normal -1 0 0
    outer loop
      vertex 57 -13.1836 64.95
      vertex 57 25 4
      vertex 57 -25 73
    endloop
  endfacet
  facet normal -1 0 0
    outer loop
      vertex 57 -25 73
      vertex 57 25 4
      vertex 57 -25 4
    endloop
  endfacet
  facet normal -1 0 0
    outer loop
      vertex 57 -10.8164 64.95
      vertex 57 25 4
      vertex 57 -13.1836 64.95
    endloop
  endfacet
  facet normal -1 0 0
    outer loop
      vertex 57 -14.3671 67
      vertex 57 -13.1836 64.95
      vertex 57 -25 73
    endloop
  endfacet
  facet normal -1 0 0
    outer loop
      vertex 57 11.8164 64.95
      vertex 57 25 4
      vertex 57 -10.8164 64.95
    endloop
  endfacet
  facet normal -1 0 0
    outer loop
      vertex 57 -14.3671 67
      vertex 57 -25 73
      vertex 57 -13.1836 69.05
    endloop
  endfacet
  facet normal -1 0 0
    outer loop
      vertex 57 25 73
      vertex 57 -9.63286 67
      vertex 57 -10.8164 69.05
    endloop
  endfacet
  facet normal -1 0 0
    outer loop
      vertex 57 25 73
      vertex 57 -10.8164 69.05
      vertex 57 -25 73
    endloop
  endfacet
  facet normal -1 0 0
    outer loop
      vertex 57 -10.8164 69.05
      vertex 57 -13.1836 69.05
      vertex 57 -25 73
    endloop
  endfacet
  facet normal -1 0 0
    outer loop
      vertex 57 14.1836 69.05
      vertex 57 25 73
      vertex 57 15.3671 67
    endloop
  endfacet
  facet normal -1 0 0
    outer loop
      vertex 57 14.1836 64.95
      vertex 57 25 4
      vertex 57 11.8164 64.95
    endloop
  endfacet
  facet normal -1 0 0
    outer loop
      vertex 57 10.6329 67
      vertex 57 11.8164 64.95
      vertex 57 -10.8164 64.95
    endloop
  endfacet
  facet normal -1 0 0
    outer loop
      vertex 57 25 73
      vertex 57 25 4
      vertex 57 14.1836 64.95
    endloop
  endfacet
  facet normal -1 0 0
    outer loop
      vertex 57 25 73
      vertex 57 14.1836 64.95
      vertex 57 15.3671 67
    endloop
  endfacet
  facet normal -1 0 0
    outer loop
      vertex 57 10.6329 67
      vertex 57 -10.8164 64.95
      vertex 57 11.8164 69.05
    endloop
  endfacet
  facet normal -1 0 0
    outer loop
      vertex 57 25 73
      vertex 57 14.1836 69.05
      vertex 57 11.8164 69.05
    endloop
  endfacet
  facet normal -1 0 0
    outer loop
      vertex 57 25 73
      vertex 57 11.8164 69.05
      vertex 57 -10.8164 64.95
    endloop
  endfacet
  facet normal -1 0 0
    outer loop
      vertex 57 -9.63286 67
      vertex 57 25 73
      vertex 57 -10.8164 64.95
    endloop
  endfacet
  facet normal -1.11022e-16 0.866025 0.5
    outer loop
      vertex 59 -13.1836 64.95
      vertex 57 -13.1836 64.95
      vertex 59 -14.3671 67
    endloop
  endfacet
  facet normal -1.11022e-16 0.866025 0.5
    outer loop
      vertex 59 -14.3671 67
      vertex 57 -13.1836 64.95
      vertex 57 -14.3671 67
    endloop
  endfacet
  facet normal -2.22045e-16 2.22045e-16 1
    outer loop
      vertex 59 -13.1836 64.95
      vertex 59 -10.8164 64.95
      vertex 57 -10.8164 64.95
    endloop
  endfacet
  facet normal -2.22045e-16 2.22045e-16 1
    outer loop
      vertex 57 -13.1836 64.95
      vertex 59 -13.1836 64.95
      vertex 57 -10.8164 64.95
    endloop
  endfacet
  facet normal -1.11022e-16 -0.866025 0.5
    outer loop
      vertex 59 -10.8164 64.95
      vertex 59 -9.63286 67
      vertex 57 -9.63286 67
    endloop
  endfacet
  facet normal -1.11022e-16 -0.866025 0.5
    outer loop
      vertex 57 -10.8164 64.95
      vertex 59 -10.8164 64.95
      vertex 57 -9.63286 67
    endloop
  endfacet
  facet normal 1.11022e-16 -0.866025 -0.5
    outer loop
      vertex 57 -9.63286 67
      vertex 59 -9.63286 67
      vertex 59 -10.8164 69.05
    endloop
  endfacet
  facet normal 1.11022e-16 -0.866025 -0.5
    outer loop
      vertex 57 -10.8164 69.05
      vertex 57 -9.63286 67
      vertex 59 -10.8164 69.05
    endloop
  endfacet
  facet normal 2.22045e-16 -2.22045e-16 -1
    outer loop
      vertex 59 -10.8164 69.05
      vertex 59 -13.1836 69.05
      vertex 57 -10.8164 69.05
    endloop
  endfacet
  facet normal 2.22045e-16 -2.22045e-16 -1
    outer loop
      vertex 57 -10.8164 69.05
      vertex 59 -13.1836 69.05
      vertex 57 -13.1836 69.05
    endloop
  endfacet
  facet normal 1.11022e-16 0.866025 -0.5
    outer loop
      vertex 59 -13.1836 69.05
      vertex 59 -14.3671 67
      vertex 57 -13.1836 69.05
    endloop
  endfacet
  facet normal 1.11022e-16 0.866025 -0.5
    outer loop
      vertex 57 -13.1836 69.05
      vertex 59 -14.3671 67
      vertex 57 -14.3671 67
    endloop
  endfacet
  facet normal -1.11022e-16 0.866025 0.5
    outer loop
      vertex 59 11.8164 64.95
      vertex 57 11.8164 64.95
      vertex 59 10.6329 67
    endloop
  endfacet
  facet normal -1.11022e-16 0.866025 0.5
    outer loop
      vertex 59 10.6329 67
      vertex 57 11.8164 64.95
      vertex 57 10.6329 67
    endloop
  endfacet
  facet normal -2.22045e-16 2.22045e-16 1
    outer loop
      vertex 59 11.8164 64.95
      vertex 59 14.1836 64.95
      vertex 57 14.1836 64.95
    endloop
  endfacet
  facet normal -2.22045e-16 2.22045e-16 1
    outer loop
      vertex 57 11.8164 64.95
      vertex 59 11.8164 64.95
      vertex 57 14.1836 64.95
    endloop
  endfacet
  facet normal -1.11022e-16 -0.866025 0.5
    outer loop
      vertex 59 14.1836 64.95
      vertex 59 15.3671 67
      vertex 57 15.3671 67
    endloop
  endfacet
  facet normal -1.11022e-16 -0.866025 0.5
    outer loop
      vertex 57 14.1836 64.95
      vertex 59 14.1836 64.95
      vertex 57 15.3671 67
    endloop
  endfacet
  facet normal 1.11022e-16 -0.866025 -0.5
    outer loop
      vertex 57 15.3671 67
      vertex 59 15.3671 67
      vertex 59 14.1836 69.05
    endloop
  endfacet
  facet normal 1.11022e-16 -0.866025 -0.5
    outer loop
      vertex 57 14.1836 69.05
      vertex 57 15.3671 67
      vertex 59 14.1836 69.05
    endloop
  endfacet
  facet normal 2.22045e-16 -2.22045e-16 -1
    outer loop
      vertex 59 14.1836 69.05
      vertex 59 11.8164 69.05
      vertex 57 14.1836 69.05
    endloop
  endfacet
  facet normal 2.22045e-16 -2.22045e-16 -1
    outer loop
      vertex 57 14.1836 69.05
      vertex 59 11.8164 69.05
      vertex 57 11.8164 69.05
    endloop
  endfacet
  facet normal 1.11022e-16 0.866025 -0.5
    outer loop
      vertex 59 11.8164 69.05
      vertex 59 10.6329 67
      vertex 57 11.8164 69.05
    endloop
  endfacet
  facet normal 1.11022e-16 0.866025 -0.5
    outer loop
      vertex 57 11.8164 69.05
      vertex 59 10.6329 67
      vertex 57 10.6329 67
    endloop
  endfacet
  facet normal 0 0 1
    outer loop
      vertex -42 20 4
      vertex 57 25 4
      vertex -57 25 4
    endloop
  endfacet
  facet normal 0 0 1
    outer loop
      vertex 28.5 -21.7321 4
      vertex 27.5 -20 4
      vertex -2 -20 4
    endloop
  endfacet
  facet normal 0 0 1
    outer loop
      vertex -2 20 4
      vertex 4.5 -7.73959 4
      vertex 4.5 7.73959 4
    endloop
  endfacet
  facet normal 0 0 1
    outer loop
      vertex -57 13.5 4
      vertex -51 13.5 4
      vertex -57 25 4
    endloop
  endfacet
  facet normal 0 0 1
    outer loop
      vertex 31.5 20 4
      vertex 30.5 18.2679 4
      vertex 57 25 4
    endloop
  endfacet
  facet normal 0 0 1
    outer loop
      vertex -2 20 4
      vertex -2 -20 4
      vertex 4.5 -7.73959 4
    endloop
  endfacet
  facet normal 0 0 1
    outer loop
      vertex -32 20 4
      vertex -32 -20 4
      vertex -26 -20 4
    endloop
  endfacet
  facet normal 0 0 1
    outer loop
      vertex -51 13.5 4
      vertex -46 20 4
      vertex -57 25 4
    endloop
  endfacet
  facet normal 0 0 1
    outer loop
      vertex -36 20 4
      vertex 57 25 4
      vertex -42 20 4
    endloop
  endfacet
  facet normal 0 0 1
    outer loop
      vertex -57 -25 4
      vertex 57 -25 4
      vertex -42 -20 4
    endloop
  endfacet
  facet normal 0 0 1
    outer loop
      vertex -57 -25 4
      vertex -46 -20 4
      vertex -57 1.5 4
    endloop
  endfacet
  facet normal 0 0 1
    outer loop
      vertex -57 -25 4
      vertex -42 -20 4
      vertex -46 -20 4
    endloop
  endfacet
  facet normal 0 0 1
    outer loop
      vertex -32 20 4
      vertex 57 25 4
      vertex -36 20 4
    endloop
  endfacet
  facet normal 0 0 1
    outer loop
      vertex -26 20 4
      vertex 57 25 4
      vertex -32 20 4
    endloop
  endfacet
  facet normal 0 0 1
    outer loop
      vertex -36 -20 4
      vertex 57 -25 4
      vertex -32 -20 4
    endloop
  endfacet
  facet normal 0 0 1
    outer loop
      vertex -42 -20 4
      vertex 57 -25 4
      vertex -36 -20 4
    endloop
  endfacet
  facet normal 0 0 1
    outer loop
      vertex -22 20 4
      vertex 57 25 4
      vertex -26 20 4
    endloop
  endfacet
  facet normal 0 0 1
    outer loop
      vertex -16 20 4
      vertex 57 25 4
      vertex -22 20 4
    endloop
  endfacet
  facet normal 0 0 1
    outer loop
      vertex -26 -20 4
      vertex 57 -25 4
      vertex -22 -20 4
    endloop
  endfacet
  facet normal 0 0 1
    outer loop
      vertex -32 -20 4
      vertex 57 -25 4
      vertex -26 -20 4
    endloop
  endfacet
  facet normal 0 0 1
    outer loop
      vertex -12 20 4
      vertex 57 25 4
      vertex -16 20 4
    endloop
  endfacet
  facet normal 0 0 1
    outer loop
      vertex 52 -13.75 4
      vertex 10.5104 -13.75 4
      vertex 30.5 -18.2679 4
    endloop
  endfacet
  facet normal 0 0 1
    outer loop
      vertex -6 20 4
      vertex 57 25 4
      vertex -12 20 4
    endloop
  endfacet
  facet normal 0 0 1
    outer loop
      vertex -16 -20 4
      vertex 57 -25 4
      vertex -12 -20 4
    endloop
  endfacet
  facet normal 0 0 1
    outer loop
      vertex -22 -20 4
      vertex 57 -25 4
      vertex -16 -20 4
    endloop
  endfacet
  facet normal 0 0 1
    outer loop
      vertex -2 20 4
      vertex 57 25 4
      vertex -6 20 4
    endloop
  endfacet
  facet normal 0 0 1
    outer loop
      vertex 28.5 21.7321 4
      vertex 57 25 4
      vertex -2 20 4
    endloop
  endfacet
  facet normal 0 0 1
    outer loop
      vertex -6 -20 4
      vertex 57 -25 4
      vertex -2 -20 4
    endloop
  endfacet
  facet normal 0 0 1
    outer loop
      vertex -12 -20 4
      vertex 57 -25 4
      vertex -6 -20 4
    endloop
  endfacet
  facet normal 0 0 1
    outer loop
      vertex -6 -20 4
      vertex -6 20 4
      vertex -12 20 4
    endloop
  endfacet
  facet normal 0 0 1
    outer loop
      vertex 57 -25 4
      vertex 57 25 4
      vertex 52 13.75 4
    endloop
  endfacet
  facet normal 0 0 1
    outer loop
      vertex 57 -25 4
      vertex 52 13.75 4
      vertex 52 -13.75 4
    endloop
  endfacet
  facet normal 0 0 1
    outer loop
      vertex 30.5 -18.2679 4
      vertex 31.5 -20 4
      vertex 57 -25 4
    endloop
  endfacet
  facet normal 0 0 1
    outer loop
      vertex 52 -13.75 4
      vertex 30.5 -18.2679 4
      vertex 57 -25 4
    endloop
  endfacet
  facet normal 0 0 1
    outer loop
      vertex -36 -20 4
      vertex -36 20 4
      vertex -42 20 4
    endloop
  endfacet
  facet normal 0 0 1
    outer loop
      vertex -42 20 4
      vertex -42 -20 4
      vertex -36 -20 4
    endloop
  endfacet
  facet normal 0 0 1
    outer loop
      vertex -22 20 4
      vertex -22 -20 4
      vertex -16 -20 4
    endloop
  endfacet
  facet normal 0 0 1
    outer loop
      vertex 4.5 -7.73959 4
      vertex -2 -20 4
      vertex 10.5104 -13.75 4
    endloop
  endfacet
  facet normal 0 0 1
    outer loop
      vertex 28.5 18.2679 4
      vertex 27.5 20 4
      vertex 10.5104 13.75 4
    endloop
  endfacet
  facet normal 0 0 1
    outer loop
      vertex 28.5 -21.7321 4
      vertex 57 -25 4
      vertex 30.5 -21.7321 4
    endloop
  endfacet
  facet normal 0 0 1
    outer loop
      vertex 27.5 -20 4
      vertex 28.5 -18.2679 4
      vertex 10.5104 -13.75 4
    endloop
  endfacet
  facet normal 0 0 1
    outer loop
      vertex -2 -20 4
      vertex 57 -25 4
      vertex 28.5 -21.7321 4
    endloop
  endfacet
  facet normal 0 0 1
    outer loop
      vertex 10.5104 13.75 4
      vertex 27.5 20 4
      vertex -2 20 4
    endloop
  endfacet
  facet normal 0 0 1
    outer loop
      vertex 30.5 18.2679 4
      vertex 28.5 18.2679 4
      vertex 10.5104 13.75 4
    endloop
  endfacet
  facet normal 0 0 1
    outer loop
      vertex 27.5 20 4
      vertex 28.5 21.7321 4
      vertex -2 20 4
    endloop
  endfacet
  facet normal 0 0 1
    outer loop
      vertex 30.5 21.7321 4
      vertex 57 25 4
      vertex 28.5 21.7321 4
    endloop
  endfacet
  facet normal 0 0 1
    outer loop
      vertex 52 13.75 4
      vertex 30.5 18.2679 4
      vertex 10.5104 13.75 4
    endloop
  endfacet
  facet normal 0 0 1
    outer loop
      vertex 52 13.75 4
      vertex 57 25 4
      vertex 30.5 18.2679 4
    endloop
  endfacet
  facet normal 0 0 1
    outer loop
      vertex 30.5 21.7321 4
      vertex 31.5 20 4
      vertex 57 25 4
    endloop
  endfacet
  facet normal 0 0 1
    outer loop
      vertex -46 20 4
      vertex -42 20 4
      vertex -57 25 4
    endloop
  endfacet
  facet normal 0 0 1
    outer loop
      vertex 31.5 -20 4
      vertex 30.5 -21.7321 4
      vertex 57 -25 4
    endloop
  endfacet
  facet normal 0 0 1
    outer loop
      vertex 28.5 -18.2679 4
      vertex 30.5 -18.2679 4
      vertex 10.5104 -13.75 4
    endloop
  endfacet
  facet normal 0 0 1
    outer loop
      vertex 10.5104 -13.75 4
      vertex -2 -20 4
      vertex 27.5 -20 4
    endloop
  endfacet
  facet normal 0 0 1
    outer loop
      vertex -12 20 4
      vertex -12 -20 4
      vertex -6 -20 4
    endloop
  endfacet
  facet normal 0 0 1
    outer loop
      vertex -16 -20 4
      vertex -16 20 4
      vertex -22 20 4
    endloop
  endfacet
  facet normal 0 0 1
    outer loop
      vertex 4.5 7.73959 4
      vertex 10.5104 13.75 4
      vertex -2 20 4
    endloop
  endfacet
  facet normal 0 0 1
    outer loop
      vertex -26 -20 4
      vertex -26 20 4
      vertex -32 20 4
    endloop
  endfacet
  facet normal 0 0 1
    outer loop
      vertex -46 -20 4
      vertex -51 1.5 4
      vertex -57 1.5 4
    endloop
  endfacet
  facet normal 0 0 1
    outer loop
      vertex -46 -20 4
      vertex -51 13.5 4
      vertex -51 1.5 4
    endloop
  endfacet
  facet normal 0 0 1
    outer loop
      vertex -46 -20 4
      vertex -46 20 4
      vertex -51 13.5 4
    endloop
  endfacet
endsolid OpenSCAD_Model
